<svg width="858" height="770" viewBox="0 0 858 770" fill="none" xmlns="http://www.w3.org/2000/svg">
<g clip-path="url(#clip0)">
<path d="M69.84 711.4H19.56L8.28 736H3.84L42.72 652H46.68L85.56 736H81.12L69.84 711.4ZM68.28 707.92L44.76 656.68L21.12 707.92H68.28ZM169.743 736.48C161.583 736.48 154.183 734.64 147.543 730.96C140.983 727.28 135.823 722.2 132.063 715.72C128.303 709.24 126.423 702 126.423 694C126.423 686 128.303 678.76 132.063 672.28C135.823 665.8 140.983 660.72 147.543 657.04C154.183 653.36 161.583 651.52 169.743 651.52C175.503 651.52 180.903 652.48 185.943 654.4C190.983 656.24 195.303 659 198.903 662.68L196.383 665.32C189.423 658.6 180.583 655.24 169.863 655.24C162.503 655.24 155.823 656.96 149.823 660.4C143.823 663.76 139.103 668.4 135.663 674.32C132.223 680.24 130.503 686.8 130.503 694C130.503 701.2 132.223 707.76 135.663 713.68C139.103 719.6 143.823 724.28 149.823 727.72C155.823 731.08 162.503 732.76 169.863 732.76C180.503 732.76 189.343 729.36 196.383 722.56L198.903 725.2C195.303 728.88 190.983 731.68 185.943 733.6C180.983 735.52 175.583 736.48 169.743 736.48ZM303.943 711.4H253.663L242.383 736H237.943L276.823 652H280.783L319.663 736H315.223L303.943 711.4ZM302.383 707.92L278.863 656.68L255.223 707.92H302.383ZM370.218 652H402.618C411.338 652 419.058 653.8 425.778 657.4C432.578 661 437.818 666 441.498 672.4C445.258 678.72 447.138 685.92 447.138 694C447.138 702.08 445.258 709.32 441.498 715.72C437.818 722.04 432.578 727 425.778 730.6C419.058 734.2 411.338 736 402.618 736H370.218V652ZM402.378 732.28C410.538 732.28 417.658 730.64 423.738 727.36C429.898 724.08 434.658 719.56 438.018 713.8C441.378 707.96 443.058 701.36 443.058 694C443.058 686.64 441.378 680.08 438.018 674.32C434.658 668.48 429.898 663.92 423.738 660.64C417.658 657.36 410.538 655.72 402.378 655.72H374.298V732.28H402.378ZM560.318 732.28V736H503.558V652H558.638V655.72H507.638V691.48H553.238V695.2H507.638V732.28H560.318ZM697.955 736L697.835 660.28L660.995 724.36H658.835L621.875 660.52V736H617.915V652H621.275L659.915 719.2L698.435 652H701.795L701.915 736H697.955ZM790.481 707.32V736H786.401V707.32L752.441 652H756.881L788.561 703.36L820.241 652H824.561L790.481 707.32Z" fill="black"/>
<path d="M562.5 2.62408L440.516 209.259L562.5 209.1L735.828 555.065H838.72L562.5 2.62408ZM549.934 251.091C553.268 268.78 554.981 286.665 554.838 305.065C555 327.335 552.077 349.455 545.732 372.028C540.325 394.337 531.57 415.557 519.732 436.628C516.781 441.881 513.705 446.967 510.53 451.92L511.074 452.1C505.944 459.796 500.436 467.241 494.55 474.419C467.134 509.255 433.024 535.193 392.241 552.775C380.49 558.08 368.196 562.463 355.234 565.925C354.589 566.111 353.953 566.307 353.305 566.488C338.168 570.735 323.194 573.78 308.374 575.623C308.329 575.44 308.276 575.261 308.229 575.08C299.146 575.968 289.896 576.399 280.43 576.399C203.78 576.399 139.558 548.777 85.6943 494.913C31.8316 441.052 4.20898 376.831 4.20898 300.179C4.20898 224.217 31.141 159.305 85.6943 105.443C138.866 50.8894 203.78 23.9575 280.43 23.9575C283.176 23.9575 488.573 24.0094 491.296 24.0854L437.962 116.659C435.252 116.555 283.189 116.492 280.43 116.492C230.02 116.492 186.514 133.755 149.916 170.355C114.006 206.264 96.7436 249.768 96.7436 300.179C96.7436 350.588 114.006 394.784 149.916 430.692C185.825 466.601 230.02 483.865 280.43 483.865C308.053 483.865 333.602 478.34 357.081 467.983C373.726 460.149 388.977 450.221 402.845 437.977C416.921 424.839 428.989 409.225 439.06 391.303C448.006 375.379 454.388 359.059 458.409 342.445H353.764L416.43 250.603H548.408L548.225 251.091H549.934" fill="url(#paint0_radial)"/>
</g>
<defs>
<radialGradient id="paint0_radial" cx="0" cy="0" r="1" gradientUnits="userSpaceOnUse" gradientTransform="translate(457.649 556.592) scale(358.055)">
<stop offset="0.9999" stop-color="#0047FF"/>
<stop offset="1" stop-color="#4185F4"/>
</radialGradient>
<clipPath id="clip0">
<rect width="858" height="770" fill="white"/>
</clipPath>
</defs>
</svg>
